<svg width="16" height="16" viewBox="0 0 16 16" fill="none" xmlns="http://www.w3.org/2000/svg">
<g id="about-icon-2.svg" clip-path="url(#clip0_1_65)">
<g id="Group">
<g id="Group_2">
<path id="Vector" d="M8.88463 2.05415C8.88463 1.63584 8.54431 1.29553 8.12601 1.29553H6.99401C6.57571 1.29553 6.2354 1.63584 6.2354 2.05415V3.18832H8.88463V2.05415Z" fill="#A8B502"/>
<path id="Vector_2" d="M7.67112 6.04167L12.0684 7.19063V4.35501C12.0684 4.19634 11.9394 4.06726 11.7807 4.06726H3.3394C3.18073 4.06726 3.05165 4.19634 3.05165 4.35501V7.19063L7.44897 6.04167C7.52177 6.02265 7.59829 6.02265 7.67112 6.04167Z" fill="#A8B502"/>
<path id="Vector_3" d="M14.6206 13.5255C14.1356 13.5255 13.9168 13.4166 13.6397 13.2786C13.5097 13.2139 13.3726 13.1456 13.2089 13.0874C12.9817 13.0067 12.7033 12.9454 12.3217 12.94L13.9307 8.88965C13.9663 8.79347 13.9379 8.7134 13.9176 8.67406C13.8971 8.63439 13.8478 8.56393 13.7472 8.53765L7.56003 6.92102L1.37285 8.53765C1.27225 8.56393 1.22294 8.63439 1.20252 8.67406C1.18222 8.71343 1.15371 8.79359 1.18942 8.8898L2.7948 12.9401C2.41342 12.9458 2.13527 13.0075 1.90822 13.0885C1.74595 13.1465 1.60969 13.2143 1.48046 13.2786C1.2034 13.4166 0.98458 13.5256 0.499512 13.5256C0.256816 13.5256 0.0600586 13.7223 0.0600586 13.965C0.0600586 14.2077 0.256816 14.4045 0.499512 14.4045C1.19127 14.4045 1.55303 14.2244 1.87219 14.0654C1.99655 14.0035 2.10932 13.9476 2.23954 13.9046C2.39947 13.8518 2.58577 13.8186 2.85313 13.8186C2.91416 13.8186 2.97094 13.8203 3.0242 13.8236C3.39416 13.8464 3.59188 13.9449 3.83408 14.0655C4.15324 14.2244 4.515 14.4045 5.20676 14.4045C5.89849 14.4045 6.26021 14.2244 6.5794 14.0655C6.85644 13.9275 7.07525 13.8186 7.56026 13.8186C8.04527 13.8186 8.26406 13.9275 8.54109 14.0655C8.86025 14.2244 9.22198 14.4045 9.91371 14.4045C10.6054 14.4045 10.9672 14.2244 11.2863 14.0655C11.5293 13.9445 11.7275 13.8459 12.0997 13.8234C12.1519 13.8203 12.2075 13.8186 12.2672 13.8186C12.5316 13.8186 12.7167 13.8511 12.8754 13.9029C13.0079 13.9461 13.122 14.0027 13.248 14.0655C13.5672 14.2244 13.9289 14.4045 14.6206 14.4045C14.8633 14.4045 15.0601 14.2077 15.0601 13.965C15.0601 13.7223 14.8633 13.5255 14.6206 13.5255ZM3.49723 9.16997L7.44894 8.13743C7.52177 8.11841 7.59829 8.11841 7.67112 8.13743L11.6228 9.16997C11.8576 9.23131 11.9983 9.47143 11.9369 9.70624C11.8853 9.90382 11.7071 10.0347 11.5121 10.0347C11.4753 10.0347 11.4379 10.0301 11.4007 10.0203L7.56003 9.01683L3.71941 10.0203C3.4846 10.0817 3.24448 9.94106 3.18313 9.70624C3.12179 9.47143 3.26241 9.23131 3.49723 9.16997Z" fill="#A8B502"/>
</g>
</g>
</g>
<defs>
<clipPath id="clip0_1_65">
<rect width="15" height="15" fill="white" transform="translate(0.0600281 0.349976)"/>
</clipPath>
</defs>
</svg>
