<svg width="16" height="16" viewBox="0 0 16 16" fill="none" xmlns="http://www.w3.org/2000/svg">
<g id="about-icon-3.svg" clip-path="url(#clip0_1_74)">
<g id="Group">
<path id="Vector" d="M8.42913 5.03748L8.42776 8.31691C8.42776 8.44143 8.47719 8.56045 8.5651 8.64833L10.9111 10.9939L11.574 10.3311L9.36525 8.1228L9.36661 5.03748H8.42913Z" fill="#A8B502"/>
<path id="Vector_2" d="M9.36756 1.28748C6.06807 1.28748 3.33733 3.73789 2.87997 6.91248H0.930054L3.2738 9.25623L5.61755 6.91248H3.82723C4.27568 4.25642 6.58579 2.22499 9.36756 2.22499C12.4694 2.22499 14.9926 4.74817 14.9926 7.84999C14.9926 10.9518 12.4694 13.475 9.36756 13.475C7.62395 13.475 6.00713 12.6858 4.93182 11.3098L4.193 11.8865C5.44725 13.4915 7.33324 14.4125 9.36756 14.4125C12.9862 14.4125 15.9301 11.4681 15.9301 7.84999C15.9301 4.23184 12.9862 1.2875 9.36756 1.28748Z" fill="#A8B502"/>
</g>
</g>
<defs>
<clipPath id="clip0_1_74">
<rect width="15" height="15" fill="white" transform="translate(0.930054 0.349976)"/>
</clipPath>
</defs>
</svg>
