<svg width="16" height="16" viewBox="0 0 16 16" fill="none" xmlns="http://www.w3.org/2000/svg">
<g id="about-icon-1.svg" clip-path="url(#clip0_1_43)">
<g id="Group">
<g id="Group_2">
<path id="Vector" d="M15.1921 7.82666C15.0567 7.64439 14.3092 7.40217 12.9499 7.10013L10.1998 6.85017L8.44988 6.35016H7.95001L5.66087 3.6002H6.19987C6.33538 3.6002 6.45255 3.58849 6.55149 3.56498C6.65047 3.54148 6.69991 3.51157 6.69991 3.47512C6.69991 3.4387 6.65047 3.40879 6.55149 3.38526C6.45255 3.36186 6.33538 3.3501 6.19987 3.3501H5.44995H4.20003H3.69999V3.60006H4.20003V6.85003H2.94999L1.44998 5.10004H0.700065L0.450074 5.35003V6.85003H0.700065V7.09999H1.70011V7.16249L0.200027 7.35001V8.35003L1.70011 8.5375V8.59997H0.700065V8.8498H0.450101V10.3499L0.700092 10.5999H1.45001L2.95001 8.84988H4.20005V12.1H3.70002V12.3498H4.20005H5.44998H6.19993C6.33543 12.3498 6.4526 12.3382 6.55155 12.3148C6.65052 12.2912 6.69997 12.2613 6.69997 12.2248C6.69997 12.1884 6.65052 12.1584 6.55155 12.1348C6.4526 12.1115 6.33543 12.0998 6.19993 12.0998H5.66093L7.95003 9.34975H8.44991L10.1999 8.84974L12.9501 8.59989C14.4448 8.26652 15.1948 8.0165 15.2001 7.84991L15.1921 7.82666Z" fill="#A8B502"/>
</g>
</g>
</g>
<defs>
<clipPath id="clip0_1_43">
<rect width="15" height="15" fill="white" transform="translate(0.200027 0.349976)"/>
</clipPath>
</defs>
</svg>
